<svg height="24" viewBox="0 0 24 24" width="24" xmlns="http://www.w3.org/2000/svg"><path d="m21 10.975v-2.975c0-1.104-.896-2-2-2h-6v-1.312c.305-.274.5-.668.5-1.11 0-.828-.672-1.5-1.5-1.5s-1.5.672-1.5 1.5c0 .442.195.836.5 1.11v1.312h-6c-1.104 0-2 .896-2 2v2.998c-.039.003-.072.005-.072.005-.524.037-.928.473-.928.997v2c0 .553.447 1 1 1v5c0 1.104.896 2 2 2h14c1.104 0 2-.896 2-2v-5c.553 0 1-.447 1-1v-1.938c.011-.153-.012-.31-.072-.455-.202-.488-.635-.605-.928-.632zm-14 1.025c0-1.104.672-2 1.5-2s1.5.896 1.5 2-.672 2-1.5 2-1.5-.896-1.5-2zm8.998 6c-1.001-.003-7.997 0-7.998 0v-2s7.001-.002 8.002 0zm-.498-4c-.828 0-1.5-.896-1.5-2s.672-2 1.5-2 1.5.896 1.5 2-.672 2-1.5 2z"/></svg>